<?xml version="1.0" standalone="no"?>
<!DOCTYPE svg PUBLIC "-//W3C//DTD SVG 20010904//EN"
 "http://www.w3.org/TR/2001/REC-SVG-20010904/DTD/svg10.dtd">
<svg version="1.0" xmlns="http://www.w3.org/2000/svg"
 width="512.000000pt" height="512.000000pt" viewBox="0 0 512.000000 512.000000"
 preserveAspectRatio="xMidYMid meet">
<metadata>
Created by potrace 1.11, written by Peter Selinger 2001-2013
</metadata>
<g transform="translate(0.000000,512.000000) scale(0.100000,-0.100000)"
fill="#000000" stroke="none">
<path d="M1779 4800 c-25 -26 -184 -201 -254 -279 -22 -24 -45 -49 -50 -55 -6
-6 -39 -42 -74 -79 l-63 -69 -427 0 c-465 0 -495 -3 -608 -61 -108 -56 -211
-184 -249 -312 -17 -56 -18 -154 -18 -1645 0 -1487 1 -1588 17 -1640 59 -182
189 -311 367 -361 65 -18 4164 -20 4252 -2 193 39 341 184 391 383 12 46 14
309 14 1619 0 1695 2 1628 -54 1736 -50 97 -104 155 -195 210 -118 70 -134 72
-619 73 l-433 0 -50 54 c-88 95 -159 172 -242 264 -45 49 -101 111 -126 138
l-45 49 -755 1 -755 1 -24 -25z m943 -1250 c24 -5 63 -11 87 -15 106 -16 299
-93 411 -163 440 -280 664 -780 576 -1288 -75 -434 -380 -803 -796 -962 -259
-98 -571 -104 -840 -16 -373 123 -672 422 -798 800 -48 142 -63 246 -63 414 1
556 398 1061 943 1201 43 10 99 22 125 25 27 3 49 7 51 9 7 6 263 2 304 -5z"/>
<path d="M2526 3244 c-14 -31 -26 -58 -26 -59 0 -2 -22 -51 -50 -110 -27 -59
-50 -108 -50 -111 0 -2 -16 -39 -36 -81 -20 -43 -56 -120 -80 -172 l-42 -94
-174 -79 c-95 -43 -182 -83 -193 -88 -11 -5 -89 -41 -174 -79 l-155 -70 45
-19 c40 -18 119 -54 513 -234 l138 -63 45 -100 c25 -55 62 -138 84 -183 21
-46 39 -85 39 -87 0 -2 20 -45 43 -97 24 -51 57 -121 72 -156 15 -35 31 -59
35 -55 4 4 40 80 80 168 118 260 125 275 179 396 52 116 53 116 104 139 29 13
89 41 135 62 46 21 85 38 87 38 2 0 52 22 110 50 58 27 108 50 110 50 2 0 47
21 102 46 58 28 92 49 83 52 -8 3 -64 28 -125 57 -60 28 -210 96 -331 150
l-222 100 -153 338 c-85 187 -157 341 -161 343 -3 2 -18 -21 -32 -52z"/>
</g>
</svg>
